name ./resultDataOpenSim/trcMotMarkerGrf/sub06/grf-03-07.mot
datacolumns 19
datarows 20
range 0.48800000 0.56400000
endheader

                time	     ground_force_vx	     ground_force_vy	     ground_force_vz	     ground_force_px	     ground_force_py	     ground_force_pz	   l_ground_force_vx	   l_ground_force_vy	   l_ground_force_vz	   l_ground_force_px	   l_ground_force_py	   l_ground_force_pz	     ground_torque_x	     ground_torque_y	     ground_torque_z	   l_ground_torque_x	   l_ground_torque_y	   l_ground_torque_z	
          0.48800000	         88.21647004	        531.17378226	        -29.37435340	         -0.75711671	          0.00000000	          0.14410188	          0.00000000	          0.00000000	          0.00000000	          0.00000000	          0.00000000	          0.00000000	          0.00000000	          2.81866412	          0.00000000	          0.00000000	          0.00000000	          0.00000000	
          0.49200000	         95.42184369	        551.56031707	        -30.68762522	         -0.75718449	          0.00000000	          0.14388158	          0.00000000	          0.00000000	          0.00000000	          0.00000000	          0.00000000	          0.00000000	          0.00000000	          2.85358681	          0.00000000	          0.00000000	          0.00000000	          0.00000000	
          0.49600000	        103.06807819	        571.62475180	        -32.01409488	         -0.75729694	          0.00000000	          0.14368361	          0.00000000	          0.00000000	          0.00000000	          0.00000000	          0.00000000	          0.00000000	          0.00000000	          2.88512670	          0.00000000	          0.00000000	          0.00000000	          0.00000000	
          0.50000000	        111.10543026	        591.21693688	        -33.12345727	         -0.75743030	          0.00000000	          0.14350841	          0.00000000	          0.00000000	          0.00000000	          0.00000000	          0.00000000	          0.00000000	          0.00000000	          2.93383211	          0.00000000	          0.00000000	          0.00000000	          0.00000000	
          0.50400000	        119.46514583	        610.18337189	        -33.85252754	         -0.75755403	          0.00000000	          0.14335264	          0.00000000	          0.00000000	          0.00000000	          0.00000000	          0.00000000	          0.00000000	          0.00000000	          3.01484931	          0.00000000	          0.00000000	          0.00000000	          0.00000000	
          0.50800000	        128.06639517	        628.37257623	        -34.14306755	         -0.75764218	          0.00000000	          0.14320858	          0.00000000	          0.00000000	          0.00000000	          0.00000000	          0.00000000	          0.00000000	          0.00000000	          3.13357205	          0.00000000	          0.00000000	          0.00000000	          0.00000000	
          0.51200000	        136.82870569	        645.62974190	        -34.05111345	         -0.75769831	          0.00000000	          0.14307191	          0.00000000	          0.00000000	          0.00000000	          0.00000000	          0.00000000	          0.00000000	          0.00000000	          3.28352648	          0.00000000	          0.00000000	          0.00000000	          0.00000000	
          0.51600000	        145.69092061	        661.78384530	        -33.73132926	         -0.75773547	          0.00000000	          0.14294781	          0.00000000	          0.00000000	          0.00000000	          0.00000000	          0.00000000	          0.00000000	          0.00000000	          3.44703038	          0.00000000	          0.00000000	          0.00000000	          0.00000000	
          0.52000000	        154.62408544	        676.64443604	        -33.39933172	         -0.75775017	          0.00000000	          0.14285143	          0.00000000	          0.00000000	          0.00000000	          0.00000000	          0.00000000	          0.00000000	          0.00000000	          3.59847926	          0.00000000	          0.00000000	          0.00000000	          0.00000000	
          0.52400000	        163.62659063	        690.02678736	        -33.27989820	         -0.75773745	          0.00000000	          0.14279488	          0.00000000	          0.00000000	          0.00000000	          0.00000000	          0.00000000	          0.00000000	          0.00000000	          3.70946018	          0.00000000	          0.00000000	          0.00000000	          0.00000000	
          0.52800000	        172.70616739	        701.79159127	        -33.55735014	         -0.75770701	          0.00000000	          0.14278459	          0.00000000	          0.00000000	          0.00000000	          0.00000000	          0.00000000	          0.00000000	          0.00000000	          3.75444329	          0.00000000	          0.00000000	          0.00000000	          0.00000000	
          0.53200000	        181.86135994	        711.86088165	        -34.33996204	         -0.75767617	          0.00000000	          0.14282227	          0.00000000	          0.00000000	          0.00000000	          0.00000000	          0.00000000	          0.00000000	          0.00000000	          3.71573558	          0.00000000	          0.00000000	          0.00000000	          0.00000000	
          0.53600000	        191.06974699	        720.20001023	        -35.63885157	         -0.75765748	          0.00000000	          0.14290332	          0.00000000	          0.00000000	          0.00000000	          0.00000000	          0.00000000	          0.00000000	          0.00000000	          3.58667981	          0.00000000	          0.00000000	          0.00000000	          0.00000000	
          0.54000000	        200.28355672	        726.78698480	        -37.36056004	         -0.75765349	          0.00000000	          0.14301695	          0.00000000	          0.00000000	          0.00000000	          0.00000000	          0.00000000	          0.00000000	          0.00000000	          3.37255340	          0.00000000	          0.00000000	          0.00000000	          0.00000000	
          0.54400000	        209.43022434	        731.59014370	        -39.31903032	         -0.75765547	          0.00000000	          0.14315370	          0.00000000	          0.00000000	          0.00000000	          0.00000000	          0.00000000	          0.00000000	          0.00000000	          3.08913392	          0.00000000	          0.00000000	          0.00000000	          0.00000000	
          0.54800000	        218.41576003	        734.57007123	        -41.27004057	         -0.75764408	          0.00000000	          0.14330456	          0.00000000	          0.00000000	          0.00000000	          0.00000000	          0.00000000	          0.00000000	          0.00000000	          2.75937385	          0.00000000	          0.00000000	          0.00000000	          0.00000000	
          0.55200000	        227.13064266	        735.70092790	        -42.95925250	         -0.75760165	          0.00000000	          0.14345539	          0.00000000	          0.00000000	          0.00000000	          0.00000000	          0.00000000	          0.00000000	          0.00000000	          2.40897263	          0.00000000	          0.00000000	          0.00000000	          0.00000000	
          0.55600000	        235.45836578	        734.98262536	        -44.16961315	         -0.75752138	          0.00000000	          0.14358778	          0.00000000	          0.00000000	          0.00000000	          0.00000000	          0.00000000	          0.00000000	          0.00000000	          2.06178953	          0.00000000	          0.00000000	          0.00000000	          0.00000000	
          0.56000000	        243.28397605	        732.42951313	        -44.75830632	         -0.75740865	          0.00000000	          0.14368608	          0.00000000	          0.00000000	          0.00000000	          0.00000000	          0.00000000	          0.00000000	          0.00000000	          1.73601077	          0.00000000	          0.00000000	          0.00000000	          0.00000000	
          0.56400000	        250.49691949	        728.04359313	        -44.67718014	         -0.75727591	          0.00000000	          0.14374011	          0.00000000	          0.00000000	          0.00000000	          0.00000000	          0.00000000	          0.00000000	          0.00000000	          1.44177835	          0.00000000	          0.00000000	          0.00000000	          0.00000000	
